<svg id="Layer_1" data-name="Layer 1" xmlns="http://www.w3.org/2000/svg" viewBox="0 0 720.71 380.14"><defs><style>.cls-1{fill:#f7c906;}.cls-2{fill:#fff;}</style></defs><title>logo-genius</title><rect x="341.19" width="379.52" height="379.52"/><circle class="cls-1" cx="530.95" cy="189.76" r="152.71"/><path d="M589.4,718.17H550V690h39.4Z" transform="translate(-267.77 -339)"/><circle class="cls-2" cx="589.32" cy="191.11" r="23.04"/><rect x="530.95" width="189.76" height="379.52"/><path d="M530.25,718.16l-255.51,1-.19-49.1L395.12,539.77q26.1-30.18,37.07-50.91t10.91-38.47q-.09-23.65-12.87-38.64t-36.17-14.9q-26,.1-39.39,17.76t-13.32,47l-73,.28-.52-1.54q-1.49-50.63,33-85.85t93-35.45q57.83-.22,91,29.72t33.34,80.07a112.55,112.55,0,0,1-18.39,62.66q-18.53,28.74-61.27,75.42l-66.3,72.75.52,1.28L530,660.32Z" transform="translate(-267.77 -339)"/></svg>
